Patient4_TMGait_0pt2_03_left_24_EMG.mot
version=1
nRows=16
nColumns=33
inDegrees=no
endheader
time	1LAddLong	2LGlutMax	3LGlutMed	4LIliopsoas	5LSemiMemb	6LBicFemLong	7LRecFem	8LVastMed	9LVastLat	10LGasMed	11LTibAnt	12lTibPost	13LPeroneusLong	14LSol	15LExtDigLong	16LFlexDigLong	17RAddLong	18RGlutMax	19RGlutMed	20RIliopsoas	21RSemiMemb	22RBicFemLong	23RRecFem	24RVastMed	25RVastLat	26RGasMed	27RTibAnt	28RTibPost	29RPeroneusLong	30RSol	31RExtDigLong	32RFlexDigLong
50.15	0.002747	0.12665	0.076904	0.004883	0.005951	-0.010681	0.003662	0.017548	-0.003052	-0.013123	0.10284	0.002747	0.12741	0.098572	0.11963	-0.001678	0.003357	-0.35355	-0.38696	-0.072937	0.059357	-0.031891	0.34515	-0.63828	-0.054474	-0.003052	0.020905	-0.10223	-0.018768	0.45548	0.001373	-0.003052
50.151	0.004578	0.10193	0.046997	-0.002899	0.006866	-0.002899	0.002899	0.019684	0.002441	-0.029449	0.13001	0.005188	0.11597	0.075989	0.14038	0.011139	-0.019989	-0.27206	0.020447	0.010681	0.50308	-0.046997	0.30731	-0.56397	0.094147	-0.006409	0.054321	0.077057	-0.088959	0.2095	0.001221	-0.005035
50.152	0.004578	0.10605	0.023041	0.010529	0.003967	-0.010529	-0.03891	0.022125	-0.002747	-0.006714	-0.01709	0.006256	0.089569	0.031128	0.061188	0.001373	-0.013885	-0.1535	0.28671	0.086517	0.37201	0.074768	0.56244	-0.49027	0.24826	-0.006561	0.070343	0.10941	-0.13534	0.1326	-0.001678	-0.001678
50.153	0.007324	0.086212	0.08255	0.035095	-0.002441	-0.006714	-0.037079	0.027008	0.000458	0.000458	-0.1297	0.008087	0.02533	0.066986	-0.11902	-0.004883	-0.034027	-0.18662	0.19119	0.06134	-0.057526	0.14847	0.61981	0.616	0.39215	0.002136	0.000458	0.017853	-0.070496	0.071869	-0.00061	0.002136
50.154	0.007172	0.056458	0.007782	0.041962	0.002289	-0.016479	-0.078583	0.022583	0.003204	0.023956	-0.12558	0.009308	0.027161	0.027466	-0.14297	-0.008087	-0.011597	-0.14755	0.042267	0.045624	-0.1152	0.088654	0.54993	0.9906	0.1355	0.006409	0.029907	-0.016479	-0.052338	0.009308	0	-0.001831
50.155	0.005798	0.061493	-0.019226	0.035553	0.00351	-0.023346	-0.070648	0.023651	0.002747	0.031891	-0.040588	0.002594	0.021667	-0.034485	0.050964	0.007629	-0.00885	-0.11032	0.016632	-0.00412	-0.13062	0.036011	0.35629	0.36407	-0.061798	0.005798	0.005646	-0.029755	-0.074768	-0.093231	-0.003967	0.003815
50.156	0.00412	0.071106	0.014954	0.019226	0.011139	-0.010986	-0.061646	0.023041	-0.005188	0.011749	-0.035706	0.010834	0.073853	-0.016327	0.058441	-0.004425	0.000458	-0.07309	0.043335	-0.032349	-0.086975	0.002441	0.066681	0.19043	0.029602	0.00061	-0.014496	-0.040436	0.006409	-0.39429	-0.004272	-0.003662
50.157	0.00824	0.053558	-0.014038	-0.005341	0.01236	-0.012665	-0.079803	0.020752	-0.008545	0.002289	-0.073395	0.005951	0.074768	0.00946	-0.011292	-0.007629	0.00946	-0.10178	-0.022278	0.039825	-0.031738	-0.018921	0.13626	0.39932	-0.001221	-0.000305	-0.033569	-0.079651	-0.10132	-0.53146	-0.000916	-0.000305
50.158	0.011902	0.051117	-0.035248	-0.014954	0.014038	-0.010071	-0.088348	0.023193	0.003052	0.022278	-0.010834	0.006714	0.045471	0.043182	-0.17319	0.005493	0.014038	-0.05188	-0.20371	0.09903	-0.012207	-0.028992	0.19623	0.5632	0.039978	0.005951	-0.055695	-0.066986	-0.34164	-0.47394	-0.001068	0.00946
50.159	0.007172	0.040894	-0.092316	-0.012665	0.011292	-0.015869	-0.094299	0.028076	-0.001221	0.024414	-0.012512	0.010986	0.033722	0.030212	-0.11307	0.000458	0.012665	-0.048218	0.16708	0.052032	-0.084991	-0.038757	-0.018005	0.14832	-0.059814	0.001678	-0.003815	0.032806	-0.21164	-0.074768	-0.000763	-0.001221
50.16	0.018921	0.009308	-0.1445	-0.007172	0.005493	-0.011597	-0.085144	0.027771	-0.006104	0.022583	-0.019531	0.009308	0.046844	0.024109	0.015564	0.004425	-0.00824	0.058289	0.29511	0.001221	-0.11887	-0.012817	-0.26779	0.25681	0.21912	-0.001526	-0.007172	0.00824	0.048676	0.44586	0.010986	-0.003815
50.161	0.003357	0.031433	-0.15076	-0.008545	0.001984	-0.021057	-0.023193	0.025482	-0.002747	0.023804	-0.0177	0.017395	0.05249	0.035706	0.071564	-0.001373	0.003204	0.090485	0.12726	-0.015259	-0.007019	-0.007935	-0.25116	0.094299	0.46234	0.001221	-0.028229	-0.013885	0.14145	0.49591	-0.001678	-0.013275
50.162	0.005798	0.046082	-0.028687	-0.016327	0.004578	-0.009918	0.030365	0.019379	0.005188	0.007477	-0.02533	0.004272	0.04776	0.005646	0.069733	-0.005188	-0.007629	0.19562	0.009003	-0.082397	0.14404	0.004425	-0.18433	-0.40207	0.56488	0.001678	-0.038757	-0.023499	0.26901	0.28259	-0.008392	-0.006104
50.163	0.005341	0.065765	0.18982	-0.021057	0.009003	-0.007477	0.019073	0.022888	0.016022	0.00885	-0.001526	0.004272	0.065613	0.015869	0.062866	-0.005035	-0.00946	0.19302	0.069122	-0.11475	0.17303	0.10025	-0.069122	-0.76324	0.17761	0.00946	-0.024109	-0.015259	0.24811	0.068359	0.000916	-0.002136
50.164	0.001526	0.053864	0.22949	0.011597	0.005798	-0.022278	-0.025024	0.019226	0.007629	0.003357	0.006104	0.002441	0.050812	0.027008	0.049896	-0.006256	0.0177	0.19821	0.42801	-0.045929	-0.10193	0.1355	0.28641	-1.2807	-0.06485	0.011902	-0.016174	-0.019836	0.14023	0.18951	-0.003815	-0.009308
50.165	0.003967	0.048523	0.1947	0.024567	0.005188	-0.006256	-0.057983	0.023346	0.011597	0.016785	0.041656	0.004425	0.040588	0.023041	0.121	0.005951	0.029907	0.15182	0.60974	0.007477	-0.061646	0.066223	0.75363	-1.0698	-0.2034	0.00473	-0.027313	-0.015106	0.034637	0.31982	0.000916	-0.00824
